<?xml version="1.0" encoding="UTF-8"?>
<svg width="20px" height="20px" viewBox="0 0 20 20" version="1.1" xmlns="http://www.w3.org/2000/svg" xmlns:xlink="http://www.w3.org/1999/xlink">
    <!-- Generator: Sketch 53.2 (72643) - https://sketchapp.com -->
    <title>Path</title>
    <desc>Created with Sketch.</desc>
    <g id="Page-1" stroke="none" stroke-width="1" fill="none" fill-rule="evenodd">
        <g id="Dashboard" transform="translate(-39.000000, -633.000000)" fill="#000000" fill-rule="nonzero">
            <g id="user-copy-4" transform="translate(39.000000, 633.000000)">
                <path d="M17.0612881,2.92637288 C13.1644068,-0.970576271 6.82359322,-0.970576271 2.92671186,2.92637288 C1.55945763,4.29362712 0.62420339,6.01132203 0.221966102,7.89383051 C-0.169627119,9.72684746 -0.0413559322,11.6259661 0.592881356,13.3857627 C0.669084746,13.5970847 0.902237288,13.7066441 1.11349153,13.6305085 C1.32488136,13.5543051 1.43444068,13.3212203 1.35823729,13.1098983 C0.775525424,11.4930169 0.657694915,9.74813559 1.01755932,8.06372881 C1.38684746,6.33518644 2.2459661,4.75755932 3.5019661,3.50155932 C7.08169492,-0.0781694915 12.9063051,-0.0781694915 16.4860339,3.50155932 C18.1907797,5.20637288 19.1450847,7.47247458 19.1730847,9.88257627 C19.2010847,12.2882712 18.3045424,14.5724746 16.6487458,16.3143051 C16.6291525,16.3349153 16.6097627,16.355661 16.5903729,16.3764068 C16.5560678,16.4130847 16.5218305,16.4498305 16.4860339,16.4856271 C12.9063051,20.0653559 7.08169492,20.0653559 3.5019661,16.4856271 C3.48291525,16.4665763 3.46433898,16.4471864 3.4459661,16.4277966 C3.44501695,16.3902373 3.44420339,16.3532203 3.44420339,16.3167458 C3.44420339,16.2348475 3.44576271,16.1532881 3.44874576,16.072 C3.44976271,16.0448136 3.45179661,16.0178983 3.45315254,15.9907797 C3.45579661,15.9367458 3.45830508,15.8827119 3.46223729,15.8289492 C3.46461017,15.7968814 3.4680678,15.7651525 3.47091525,15.7332203 C3.47518644,15.6847458 3.47918644,15.6362712 3.48447458,15.5880678 C3.48820339,15.5540339 3.49308475,15.5202712 3.49735593,15.4863729 C3.50311864,15.4406102 3.50861017,15.3947119 3.51538983,15.3491525 C3.52054237,15.3144407 3.52664407,15.2800678 3.53233898,15.2455593 C3.53959322,15.2011525 3.54664407,15.1567458 3.55484746,15.1126102 C3.56128814,15.0776949 3.56867797,15.0431186 3.57572881,15.0084068 C3.58447458,14.9650847 3.59308475,14.9216949 3.60271186,14.8786441 C3.61050847,14.8437288 3.61918644,14.8090169 3.62752542,14.7743051 C3.63769492,14.7319322 3.64779661,14.6895593 3.65877966,14.6475254 C3.6679322,14.612678 3.67783051,14.5781017 3.68745763,14.5434576 C3.69905085,14.5019661 3.71057627,14.4604068 3.72298305,14.4191864 C3.73335593,14.3846102 3.74447458,14.3503051 3.75545763,14.316 C3.76847458,14.2752542 3.78149153,14.2344407 3.79525424,14.1940339 C3.80691525,14.1599322 3.81911864,14.1260339 3.83132203,14.0921356 C3.84576271,14.052 3.86027119,14.0118644 3.87545763,13.972 C3.88833898,13.9383051 3.90169492,13.9049492 3.91511864,13.8715254 C3.93091525,13.8321356 3.94684746,13.7927458 3.96338983,13.7536949 C3.97749153,13.7204746 3.992,13.6875254 4.00664407,13.6545763 C4.02379661,13.6158644 4.04115254,13.5772881 4.05905085,13.5389831 C4.07430508,13.5063729 4.08989831,13.4739661 4.10569492,13.4416271 C4.12427119,13.4035932 4.14305085,13.3656271 4.16230508,13.328 C4.17864407,13.2961356 4.19525424,13.2644068 4.21213559,13.2328136 C4.2320678,13.1953898 4.25233898,13.1581017 4.27301695,13.1210169 C4.29044068,13.0898305 4.3080678,13.0587797 4.3259661,13.0279322 C4.34725424,12.9912542 4.36888136,12.9547797 4.39091525,12.9184407 C4.40942373,12.8879322 4.42813559,12.8575593 4.44711864,12.827322 C4.46976271,12.7913898 4.49274576,12.755661 4.5160678,12.7202034 C4.53559322,12.6904407 4.55525424,12.6608136 4.57525424,12.6313898 C4.59918644,12.5961356 4.62366102,12.5612881 4.64833898,12.5265085 C4.66888136,12.4975593 4.68942373,12.468678 4.71044068,12.4401356 C4.73572881,12.4056949 4.76155932,12.3715932 4.78752542,12.3376949 C4.80901695,12.3096271 4.83044068,12.2815593 4.85240678,12.2538305 C4.87905085,12.2201356 4.90630508,12.1868475 4.93362712,12.1536949 C4.9559322,12.1265763 4.97823729,12.0994576 5.00101695,12.072678 C5.02908475,12.0397288 5.05776271,12.0072542 5.08650847,11.9748475 C5.10969492,11.948678 5.13274576,11.9224407 5.15633898,11.896678 C5.18576271,11.8645424 5.21579661,11.8330169 5.24589831,11.8014915 C5.26989831,11.7762712 5.29376271,11.7509831 5.31816949,11.7261017 C5.34901695,11.6947797 5.38054237,11.6641356 5.412,11.6333559 C5.43667797,11.6092881 5.46115254,11.5849492 5.48623729,11.5612203 C5.51864407,11.5305763 5.55179661,11.500678 5.58481356,11.4707119 C5.6100339,11.4478644 5.63491525,11.4247458 5.66047458,11.4022373 C5.69457627,11.3722034 5.72955932,11.3430508 5.76433898,11.3136949 C5.78983051,11.2922034 5.81505085,11.2703729 5.84088136,11.2492203 C5.87688136,11.2197966 5.91376271,11.1912542 5.95050847,11.1625085 C5.97613559,11.1425085 6.00135593,11.1220339 6.02725424,11.1023729 C6.0659661,11.0730169 6.10549153,11.044678 6.14494915,11.0162034 C6.16983051,10.9981695 6.19423729,10.9797288 6.21945763,10.9620339 C6.26298305,10.9314576 6.30752542,10.9019661 6.3519322,10.872339 C6.37383051,10.8577627 6.39525424,10.8426441 6.41728814,10.8282712 C6.47518644,10.7906441 6.53410169,10.7542373 6.59342373,10.7183051 C6.60264407,10.7127458 6.61159322,10.7067797 6.62088136,10.7012203 C6.68949153,10.6601356 6.75905085,10.6202712 6.82942373,10.5814915 C6.85349153,10.5682712 6.87823729,10.5558644 6.90257627,10.5429153 C6.94928814,10.5179661 6.99586441,10.4928136 7.04338983,10.4689492 C7.07383051,10.4536271 7.10501695,10.4392542 7.13572881,10.4244068 C7.17450847,10.4056271 7.21315254,10.3866441 7.25240678,10.3685424 C7.98969492,11.0728136 8.97322034,11.4715254 9.99410169,11.4715254 C11.0149831,11.4715254 11.9985763,11.0727458 12.7358644,10.3684068 C14.1751186,11.0345085 15.3530847,12.2296949 15.9926102,13.6831186 C16.0830508,13.888678 16.3229831,13.9821695 16.5287458,13.891661 C16.7343729,13.8011525 16.8277288,13.5610847 16.7372203,13.3555254 C16.0376949,11.7656949 14.8198644,10.4952542 13.2783729,9.72833898 C13.7256271,9.07227119 13.9675932,8.29755932 13.9675932,7.49810169 C13.9675932,5.30711864 12.1850847,3.52461017 9.99410169,3.52461017 C9.76949153,3.52461017 9.58732203,3.70677966 9.58732203,3.93138983 C9.58732203,4.156 9.76949153,4.33816949 9.99410169,4.33816949 C11.7365424,4.33816949 13.1540339,5.75572881 13.1540339,7.49810169 C13.1540339,8.27722034 12.8644746,9.02745763 12.3387797,9.61044068 C11.7383051,10.2762712 10.8837966,10.6580339 9.9940339,10.6580339 C9.10427119,10.6580339 8.24969492,10.2762712 7.64949153,9.61064407 C7.12352542,9.02718644 6.8340339,8.27715254 6.8340339,7.49816949 C6.8340339,6.64772881 7.16698305,5.84989831 7.77159322,5.25179661 C7.93132203,5.09376271 7.93267797,4.83620339 7.77464407,4.67654237 C7.61667797,4.51674576 7.35911864,4.51552542 7.19938983,4.67342373 C6.43918644,5.42528814 6.02047458,6.42847458 6.02047458,7.49789831 C6.02047458,8.29654237 6.26183051,9.07071186 6.70833898,9.72644068 C6.70433898,9.72840678 6.70047458,9.73057627 6.69654237,9.73261017 C6.66481356,9.74847458 6.63383051,9.76528814 6.60237288,9.78149153 C6.55416949,9.80644068 6.50583051,9.83125424 6.45830508,9.85722034 C6.42467797,9.87552542 6.39179661,9.89477966 6.35850847,9.91355932 C6.31410169,9.93871186 6.26962712,9.96372881 6.22583051,9.98969492 C6.19186441,10.0098983 6.15844068,10.0307797 6.12481356,10.0514576 C6.08277966,10.0773559 6.04074576,10.1031864 5.99932203,10.1298305 C5.96549153,10.1515932 5.93227119,10.1739661 5.89884746,10.1962034 C5.85864407,10.2229831 5.81850847,10.2498983 5.77891525,10.2774237 C5.74562712,10.3006102 5.71274576,10.3242712 5.67986441,10.3479322 C5.64122034,10.3757966 5.60271186,10.4037966 5.56467797,10.432339 C5.5320678,10.4568136 5.49986441,10.4816271 5.46772881,10.5065763 C5.43044068,10.5355254 5.39342373,10.564678 5.35681356,10.5943051 C5.32508475,10.6199322 5.29362712,10.6458983 5.26230508,10.672 C5.22630508,10.7021017 5.19057627,10.7325424 5.15518644,10.763322 C5.12447458,10.7899661 5.0939661,10.8168136 5.06372881,10.844 C5.02881356,10.8753898 4.99437288,10.9071186 4.96013559,10.9391186 C4.93057627,10.9667119 4.90108475,10.9943729 4.8719322,11.0225085 C4.83810169,11.0551864 4.80481356,11.088339 4.77159322,11.1216271 C4.74325424,11.1500339 4.71491525,11.1783729 4.68711864,11.2071864 C4.65423729,11.2412881 4.6219661,11.276 4.58976271,11.3107119 C4.56284746,11.3397288 4.53572881,11.3686102 4.50928814,11.3981017 C4.47708475,11.4338983 4.44576271,11.4704407 4.41430508,11.5068475 C4.38901695,11.5361356 4.36352542,11.5651525 4.33871186,11.5947797 C4.30677966,11.6329492 4.27586441,11.6718644 4.24474576,11.7106441 C4.22162712,11.7395254 4.1980339,11.768 4.17532203,11.7972203 C4.14264407,11.8392542 4.11105085,11.8821017 4.07932203,11.9248136 C4.05938983,11.951661 4.03891525,11.9780339 4.01938983,12.0051525 C3.97925424,12.0607458 3.94040678,12.1171525 3.90189831,12.1738305 C3.89179661,12.1887458 3.88108475,12.2032542 3.87105085,12.2182373 C3.82311864,12.2898305 3.77654237,12.3622373 3.73118644,12.4354576 C3.71552542,12.4607458 3.70081356,12.4865763 3.68549153,12.512 C3.65613559,12.5607458 3.62664407,12.6094237 3.59837288,12.6588475 C3.58074576,12.6896949 3.5640678,12.7210847 3.54691525,12.7522034 C3.52216949,12.7969492 3.49728814,12.8415593 3.47355932,12.8868475 C3.4559322,12.9204068 3.43925424,12.9543729 3.42210169,12.9882034 C3.4,13.0318644 3.37783051,13.0754576 3.35661017,13.1195932 C3.33972881,13.1547119 3.32366102,13.1902373 3.30732203,13.2255593 C3.28725424,13.2691525 3.26711864,13.312678 3.24786441,13.356678 C3.232,13.3929492 3.21681356,13.4295593 3.20155932,13.4661017 C3.18318644,13.5099661 3.16494915,13.5538305 3.14745763,13.5980339 C3.13274576,13.6351864 3.11864407,13.6725424 3.10454237,13.7098983 C3.08786441,13.7542373 3.07138983,13.7986441 3.05552542,13.843322 C3.04210169,13.8812203 3.02908475,13.919322 3.01620339,13.9574915 C3.00108475,14.0023051 2.98637288,14.0472542 2.97213559,14.0924746 C2.96,14.1309153 2.94827119,14.1694915 2.93674576,14.2081356 C2.92318644,14.2537627 2.91010169,14.2995254 2.89742373,14.3454915 C2.88671186,14.3842712 2.87620339,14.4231186 2.86610169,14.4621695 C2.85410169,14.5086102 2.84271186,14.5552542 2.83159322,14.6020339 C2.82230508,14.6410847 2.81308475,14.6800678 2.80447458,14.7192542 C2.7940339,14.7666441 2.78433898,14.8143051 2.77484746,14.8620339 C2.76705085,14.9010847 2.75911864,14.9401356 2.7519322,14.9793898 C2.74305085,15.0280678 2.73505085,15.0770169 2.72711864,15.1260339 C2.72088136,15.164678 2.71430508,15.2032542 2.70867797,15.2420339 C2.70128814,15.2926102 2.69505085,15.3434576 2.68867797,15.3943051 C2.684,15.432 2.67884746,15.4696271 2.67471186,15.5074576 C2.66888136,15.5607458 2.66440678,15.6143729 2.65972881,15.668 C2.65661017,15.7037288 2.65288136,15.739322 2.65030508,15.7752542 C2.6459661,15.8351186 2.64311864,15.8952542 2.64020339,15.9554576 C2.63877966,15.9853559 2.63654237,16.0150508 2.63545763,16.0450169 C2.63220339,16.135322 2.63037288,16.2259661 2.63037288,16.3169492 C2.63037288,16.4151864 2.63369492,16.5080678 2.63769492,16.6106441 C2.63864407,16.6343729 2.6419661,16.6574237 2.64671186,16.6799322 C2.65274576,16.7073898 2.65979661,16.728678 2.66827119,16.7492881 C2.67945763,16.7757288 2.68989831,16.7951186 2.70169492,16.8135593 C2.70318644,16.8158644 2.70461017,16.8181695 2.70610169,16.8204068 C2.71823729,16.8385085 2.73172881,16.8555254 2.74644068,16.8713898 L2.80305085,16.9322712 C2.84359322,16.975661 2.88413559,17.0189153 2.92644068,17.0611525 C4.87491525,19.0096271 7.43430508,19.9838644 9.99376271,19.9838644 C12.5532203,19.9838644 15.1126102,19.0096271 17.0610847,17.0611525 C17.1033898,17.0189153 17.1439322,16.9755932 17.1844746,16.9322712 L17.2381695,16.8751186 C19.0408136,14.9787797 20.0168136,12.4922712 19.9863729,9.87342373 C19.9560678,7.24935593 18.9171525,4.78223729 17.0612881,2.92637288 Z" id="Path"></path>
            </g>
        </g>
    </g>
</svg>